<?xml version="1.0" standalone="no"?>
<!DOCTYPE svg PUBLIC "-//W3C//DTD SVG 1.1//EN" "http://www.w3.org/Graphics/SVG/1.1/DTD/svg11.dtd" >
<svg xmlns="http://www.w3.org/2000/svg" xmlns:xlink="http://www.w3.org/1999/xlink" version="1.1">
<metadata></metadata>
<defs>
<font id="nasalizationregular" horiz-adv-x="1671" >
<font-face units-per-em="2048" ascent="1638" descent="-410" />
<missing-glyph horiz-adv-x="546" />
<glyph horiz-adv-x="0" />
<glyph horiz-adv-x="682" />
<glyph horiz-adv-x="546" />
<glyph unicode=" "  horiz-adv-x="546" />
<glyph unicode="&#x09;" horiz-adv-x="546" />
<glyph unicode="&#xa0;" horiz-adv-x="546" />
<glyph unicode="!" horiz-adv-x="479" d="M115 1421h254l-33 -934h-186zM125 0v279h233v-279h-233z" />
<glyph unicode="&#x22;" horiz-adv-x="782" d="M94 1550h209l-27 -612h-153zM477 1550h209l-27 -612h-153z" />
<glyph unicode="#" horiz-adv-x="1275" d="M86 350v150h231v379h-231v149h231v354h150v-354h340v354h149v-354h232v-149h-232v-379h232v-150h-232v-350h-149v350h-340v-350h-150v350h-231zM467 500h340v379h-340v-379z" />
<glyph unicode="$" horiz-adv-x="1269" d="M137 901q0 313 352 313h105v289h147v-289h349v-208h-598q-72 0 -107 -32t-35 -89q0 -125 154 -125h254q108 0 184 -22.5t116.5 -64.5t57.5 -93t17 -117q0 -154 -86 -242t-269 -88h-37v-254h-147v254h-444v211h628q142 0 142 121q0 125 -154 125h-256q-108 0 -183.5 24 t-115.5 69t-57 97.5t-17 120.5z" />
<glyph unicode="%" horiz-adv-x="1730" d="M59 1001q0 193 87.5 292.5t254.5 99.5t255.5 -100t88.5 -292q0 -190 -89 -290.5t-255 -100.5q-167 0 -254.5 100t-87.5 291zM197 1004q0 -129 48.5 -190.5t155.5 -61.5q106 0 155.5 61.5t49.5 190.5q0 128 -49 188.5t-156 60.5q-108 0 -156 -60t-48 -189zM238 0 l1085 1382h162l-1082 -1382h-165zM985 379q0 193 87.5 292t254.5 99t255.5 -99.5t88.5 -291.5q0 -190 -89 -290.5t-255 -100.5q-167 0 -254.5 100t-87.5 291zM1122 381q0 -129 49 -190.5t156 -61.5q106 0 155.5 61.5t49.5 190.5q0 128 -49 189t-156 61q-108 0 -156.5 -60.5 t-48.5 -189.5z" />
<glyph unicode="&#x26;" horiz-adv-x="1566" d="M88 385q0 138 76 226t287 186l57 26l-72 84q-117 130 -117 293q0 151 93.5 250.5t257.5 99.5h192q169 0 256.5 -98t87.5 -252q0 -118 -60.5 -200.5t-199.5 -151.5l-127 -64l244 -280l180 241h256l-299 -397l305 -348h-276l-160 182q-99 -112 -181.5 -147t-201.5 -35h-233 q-76 0 -141 23t-116 68.5t-79.5 120.5t-28.5 173zM317 416q0 -93 49.5 -149t133.5 -56h188q73 0 127.5 27t118.5 100l-309 352l-66 -33q-146 -72 -194 -120t-48 -121zM553 1178q0 -53 19.5 -93t62.5 -88l70 -79l126 61q82 39 120 83.5t38 115.5q0 74 -37.5 121t-117.5 47 h-123q-79 0 -118.5 -46.5t-39.5 -121.5z" />
<glyph unicode="'" horiz-adv-x="397" d="M94 1550h209l-27 -612h-153z" />
<glyph unicode="(" horiz-adv-x="806" d="M166 184v924q0 389 124.5 557t428.5 168h31v-150h-31q-153 0 -239.5 -52t-125.5 -171.5t-39 -333.5v-960q0 -214 39 -333.5t125.5 -171.5t239.5 -52h31v-150h-31q-304 0 -428.5 168t-124.5 557z" />
<glyph unicode=")" horiz-adv-x="806" d="M57 -391h31q153 0 239.5 52t125.5 171.5t39 333.5v960q0 214 -39 333.5t-125.5 171.5t-239.5 52h-31v150h31q304 0 428.5 -168t124.5 -557v-924q0 -389 -124.5 -557t-428.5 -168h-31v150z" />
<glyph unicode="*" horiz-adv-x="1142" d="M94 1233l72 123l352 -223l-18 417h141l-18 -417l354 225l70 -123l-371 -193l373 -192l-72 -121l-352 223l18 -417h-139l18 417l-354 -227l-72 123l371 194z" />
<glyph unicode="+" horiz-adv-x="1267" d="M82 614v150h475v479h152v-479h475v-150h-475v-473h-152v473h-475z" />
<glyph unicode="," horiz-adv-x="526" d="M57 -166h25q41 0 60.5 21t19.5 67v357h233v-332q0 -147 -65.5 -219t-200.5 -72h-72v178z" />
<glyph unicode="-" horiz-adv-x="849" d="M59 545v209h732v-209h-732z" />
<glyph unicode="." horiz-adv-x="495" d="M131 0v279h234v-279h-234z" />
<glyph unicode="/" horiz-adv-x="931" d="M23 -434l677 1984h209l-676 -1984h-210z" />
<glyph unicode="0" horiz-adv-x="1531" d="M117 690q0 347 161 530t463 183t463.5 -183t161.5 -530q0 -346 -161 -528t-464 -182t-463.5 182t-160.5 528zM354 692q0 -240 93 -355.5t294 -115.5q200 0 292.5 115.5t92.5 355.5q0 238 -93 353.5t-292 115.5q-201 0 -294 -115t-93 -354z" />
<glyph unicode="1" horiz-adv-x="690" d="M59 1141v241h146q185 0 253 -72.5t68 -256.5v-1053h-241v1036q0 56 -23 80.5t-78 24.5h-125z" />
<glyph unicode="2" horiz-adv-x="1503" d="M137 113v209q0 175 65.5 266.5t237.5 130.5l582 133q70 17 99.5 50t29.5 85q0 71 -44 112.5t-126 41.5h-799v241h793q200 0 308 -100.5t108 -290.5q0 -154 -77.5 -243t-244.5 -127l-575 -129q-68 -16 -91.5 -52t-23.5 -100v-70q0 -16 6.5 -22t20.5 -6h948v-242h-1102 q-115 0 -115 113z" />
<glyph unicode="3" horiz-adv-x="1394" d="M121 0v242h698q104 0 156.5 45.5t52.5 130.5q0 166 -211 166h-426v219h420q107 0 159 40.5t52 125.5q0 81 -52 126.5t-157 45.5h-690v241h690q234 0 348.5 -100.5t114.5 -269.5q0 -236 -197 -318q201 -84 201 -323q0 -80 -27 -146t-81 -117t-144 -79.5t-209 -28.5h-698z " />
<glyph unicode="4" horiz-adv-x="1441" d="M68 526q0 71 21.5 122t64.5 102l399 477q71 84 137.5 119.5t183.5 35.5h154q131 0 190.5 -63t59.5 -189v-1130h-244v287h-647q-170 0 -244.5 59t-74.5 180zM338 569q0 -67 92 -67h604v571q0 68 -61 68h-109q-44 0 -69.5 -12.5t-55.5 -47.5l-377 -448q-24 -27 -24 -64z " />
<glyph unicode="5" horiz-adv-x="1402" d="M156 733v537q0 112 114 112h955v-241h-801q-27 0 -27 -25v-252q0 -24 27 -24h410q135 0 229.5 -31.5t144.5 -90t71 -127t21 -157.5q0 -97 -25 -174.5t-76.5 -136.5t-138 -91t-202.5 -32h-696v242h704q193 0 193 196q0 89 -48.5 136t-164.5 47h-576q-114 0 -114 112z" />
<glyph unicode="6" horiz-adv-x="1460" d="M117 690q0 345 160 518.5t464 173.5h531v-241h-531q-172 0 -263 -78t-113 -248h579q211 0 309.5 -91.5t98.5 -283.5q0 -96 -24.5 -174t-75 -138.5t-134.5 -94t-196 -33.5h-236q-267 0 -418 175t-151 515zM360 621q12 -198 99.5 -288.5t259.5 -90.5h192q100 0 151.5 54 t51.5 146q0 179 -194 179h-560z" />
<glyph unicode="7" horiz-adv-x="1333" d="M59 1141v241h867q93 0 160.5 -24.5t104 -66.5t53 -89.5t16.5 -101.5q0 -133 -115 -293l-594 -807h-303l713 965q34 45 34 90q0 37 -23 61.5t-75 24.5h-838z" />
<glyph unicode="8" horiz-adv-x="1486" d="M113 381q0 231 200 313q-196 79 -196 310q0 177 113.5 277.5t349.5 100.5h325q236 0 349.5 -100.5t113.5 -277.5q0 -231 -197 -310q203 -83 203 -313q0 -175 -114.5 -278t-348.5 -103h-338q-234 0 -347 103t-113 278zM354 418q0 -86 53.5 -132t159.5 -46h351 q212 0 212 178q0 172 -212 172h-351q-104 0 -158.5 -43.5t-54.5 -128.5zM360 967q0 -168 215 -168h336q108 0 160.5 41t52.5 127q0 83 -52.5 130.5t-158.5 47.5h-340q-107 0 -160 -47.5t-53 -130.5z" />
<glyph unicode="9" horiz-adv-x="1460" d="M109 942q0 97 24.5 174t77 138t143 94.5t213.5 33.5h232q124 0 222 -38t171 -117t112 -209t39 -305q0 -358 -159.5 -535.5t-464.5 -177.5h-455v242h455q168 0 259.5 77.5t115.5 247.5h-580q-209 0 -307 91.5t-98 283.5zM344 940q0 -178 195 -178h561q-10 196 -97.5 287.5 t-261.5 91.5h-192q-100 0 -152.5 -54.5t-52.5 -146.5z" />
<glyph unicode=":" horiz-adv-x="557" d="M162 0v279h233v-279h-233zM162 774v279h233v-279h-233z" />
<glyph unicode=";" horiz-adv-x="557" d="M57 -166h25q41 0 60.5 21t19.5 67v357h233v-332q0 -147 -65.5 -219t-200.5 -72h-72v178zM162 774v279h233v-279h-233z" />
<glyph unicode="&#x3c;" horiz-adv-x="1267" d="M82 688q0 60 20.5 96t69.5 56l1012 399v-162l-946 -366q-13 -8 -13 -23q0 -17 13 -22l946 -367v-160l-1012 398q-48 18 -69 54.5t-21 96.5z" />
<glyph unicode="=" horiz-adv-x="1267" d="M82 350v150h1102v-150h-1102zM82 879v149h1102v-149h-1102z" />
<glyph unicode="&#x3e;" horiz-adv-x="1267" d="M84 137v162l946 367q12 7 12 22q0 18 -12 23l-946 366v160l1012 -397q48 -18 69 -55t21 -97t-20.5 -95.5t-69.5 -55.5z" />
<glyph unicode="?" horiz-adv-x="1165" d="M59 1212v209h635q205 0 301.5 -94.5t96.5 -261.5q0 -103 -34 -183.5t-111 -131t-189 -50.5h-119q-98 0 -98 -96v-117h-187v162q0 122 54 182t176 60h133q80 0 120 45t40 119q0 73 -45.5 115t-137.5 42h-635zM332 0v279h233v-279h-233z" />
<glyph unicode="@" horiz-adv-x="1568" d="M158 -6v821q0 212 99 320t282 108h526q177 0 261.5 -90.5t84.5 -282.5v-522q0 -191 -83 -275.5t-253 -84.5h-201q-170 0 -252.5 84.5t-82.5 275.5v76q0 193 82 276.5t253 83.5h367v76q0 110 -45.5 159.5t-146.5 49.5h-510q-213 0 -213 -252v-825q0 -252 213 -252h864 v-174h-864q-183 0 -282 108t-99 320zM709 348q0 -99 40.5 -142.5t124.5 -43.5h201q84 0 125 43.5t41 142.5v262h-367q-84 0 -124.5 -43t-40.5 -143v-76z" />
<glyph unicode="A" horiz-adv-x="1605" d="M39 0l485 1229q37 95 108 136.5t183 41.5q110 0 180.5 -42t106.5 -136l467 -1229h-269l-419 1112q-17 47 -68 47q-50 0 -70 -47l-438 -1112h-266z" />
<glyph unicode="B" horiz-adv-x="1472" d="M168 113v1157q0 112 115 112h608q236 0 349.5 -100.5t113.5 -277.5q0 -229 -199 -308q205 -83 205 -315q0 -175 -114.5 -278t-348.5 -103h-614q-115 0 -115 113zM406 262q0 -22 26 -22h471q107 0 160 46.5t53 133.5q0 178 -213 178h-497v-336zM406 799h491q213 0 213 166 q0 85 -52 132.5t-159 47.5h-467q-26 0 -26 -25v-321z" />
<glyph unicode="C" horiz-adv-x="1396" d="M117 690q0 345 160 518.5t464 173.5h535v-241h-535q-200 0 -291.5 -107t-91.5 -344q0 -236 91 -342t292 -106h535v-242h-535q-305 0 -464.5 173t-159.5 517z" />
<glyph unicode="D" horiz-adv-x="1509" d="M168 113v1157q0 112 115 112h487q306 0 464.5 -172.5t158.5 -519.5q0 -346 -158 -518t-465 -172h-487q-115 0 -115 113zM410 266q0 -24 26 -24h334q201 0 291 106t90 344q0 236 -90 342.5t-291 106.5h-334q-26 0 -26 -25v-850z" />
<glyph unicode="E" horiz-adv-x="1419" d="M113 377q0 234 198 317q-194 80 -194 312q0 174 114 275t349 101h692v-241h-692q-106 0 -157.5 -46t-51.5 -128q0 -164 211 -164h680v-219h-687q-210 0 -210 -168q0 -83 52 -128.5t156 -45.5h701v-242h-701q-120 0 -210 28.5t-143.5 80t-80 118.5t-26.5 150z" />
<glyph unicode="F" horiz-adv-x="1357" d="M156 0v905q0 85 17.5 156t56.5 131t97.5 101.5t144.5 65t194 23.5h573v-241h-557q-285 0 -285 -234v-131h834v-229h-834v-547h-241z" />
<glyph unicode="G" horiz-adv-x="1492" d="M117 690q0 345 160 518.5t464 173.5h570v-241h-570q-200 0 -291.5 -107t-91.5 -344q0 -236 91 -342t292 -106h230q97 0 144.5 52.5t47.5 141.5q0 84 -43 130t-127 46h-307v211h332q181 0 273.5 -103.5t92.5 -287.5q0 -94 -24.5 -170.5t-74.5 -136t-134 -92.5t-197 -33 h-213q-305 0 -464.5 173t-159.5 517z" />
<glyph unicode="H" horiz-adv-x="1525" d="M168 0v1382h242v-563h706v563h244v-1382h-244v578h-706v-578h-242z" />
<glyph unicode="I" horiz-adv-x="575" d="M168 0v1382h242v-1382h-242z" />
<glyph unicode="J" horiz-adv-x="1193" d="M59 0v242h455q283 0 283 237v903h243v-905q0 -106 -29 -191.5t-89 -150t-160 -100t-234 -35.5h-469z" />
<glyph unicode="K" horiz-adv-x="1449" d="M168 0v1382h242v-585h133q125 0 183.5 12.5t94 45.5t76.5 114l211 413h260l-217 -430q-48 -97 -103 -157t-137 -95q94 -26 153 -84t122 -182l223 -434h-270l-211 410q-24 47 -45 74.5t-47.5 48t-67.5 29t-91.5 12.5t-133.5 4h-133v-578h-242z" />
<glyph unicode="L" horiz-adv-x="1273" d="M154 477v905h241v-903q0 -237 283 -237h536v-242h-550q-108 0 -194 23.5t-144.5 65t-97.5 101.5t-56.5 131t-17.5 156z" />
<glyph unicode="M" horiz-adv-x="2256" d="M166 0v1098q0 142 84.5 225.5t247.5 83.5q287 0 348 -272l194 -846q19 -78 93 -78q73 0 92 78l194 846q30 134 112.5 203t227.5 69q163 0 247.5 -83.5t84.5 -225.5v-1098h-240v1085q0 41 -26 65t-72 24q-80 0 -96 -74l-199 -846q-33 -140 -111 -209.5t-217 -69.5 q-141 0 -221 70.5t-112 208.5l-197 846q-16 74 -96 74q-46 0 -72 -24t-26 -65v-1085h-240z" />
<glyph unicode="N" horiz-adv-x="1800" d="M166 0v1106q0 140 80 220.5t237 80.5q137 0 213.5 -64t122.5 -192l404 -883q28 -57 88 -57q38 0 60 21t22 57v1093h243v-1103q0 -141 -80.5 -222.5t-236.5 -81.5q-137 0 -214.5 64.5t-123.5 191.5l-403 883q-26 60 -86 60q-41 0 -62.5 -21.5t-21.5 -58.5v-1094h-242z" />
<glyph unicode="O" d="M117 688q0 345 160 519.5t464 174.5h189q304 0 464 -174.5t160 -519.5q0 -344 -159.5 -516t-464.5 -172h-189q-305 0 -464.5 172t-159.5 516zM358 688q0 -236 91 -341t292 -105h189q200 0 290.5 105.5t90.5 342.5q0 236 -90.5 343.5t-290.5 107.5h-189 q-200 0 -291.5 -108t-91.5 -345z" />
<glyph unicode="P" horiz-adv-x="1390" d="M164 1141v241h708q113 0 200 -33t139.5 -91t79 -131t26.5 -158q0 -65 -15 -125.5t-49 -117.5t-84 -99t-126.5 -67t-170.5 -25h-430q-34 0 -34 -35v-500h-242v547q0 117 51 168t166 51h498q96 0 144 55t48 135t-48.5 132.5t-141.5 52.5h-719z" />
<glyph unicode="Q" d="M117 690q0 345 160 518.5t464 173.5h189q304 0 464 -173.5t160 -518.5q0 -489 -317 -633l131 -274h-244l-106 221q-29 -4 -88 -4h-189q-305 0 -464.5 173t-159.5 517zM358 690q0 -236 91 -342t292 -106h164l-139 293h244l120 -256q93 44 137 145t44 266 q0 236 -90.5 343.5t-290.5 107.5h-189q-200 0 -291.5 -107.5t-91.5 -343.5z" />
<glyph unicode="R" horiz-adv-x="1462" d="M164 1141v241h749q113 0 200 -33t139.5 -91t79 -131t26.5 -158q0 -91 -28 -171.5t-96 -148.5t-169 -96l321 -553h-268l-315 535h-361q-34 0 -34 -35v-500h-242v547q0 117 51 168t166 51h539q96 0 144 55.5t48 136.5q0 79 -48.5 131t-143.5 52h-758z" />
<glyph unicode="S" horiz-adv-x="1439" d="M104 985q0 182 105.5 289.5t325.5 107.5h700v-241h-709q-90 0 -135 -44.5t-45 -119.5q0 -164 205 -164h323q109 0 192.5 -23.5t134.5 -62t82.5 -93t43.5 -109.5t12 -119q0 -186 -107.5 -296t-332.5 -110h-770v242h778q95 0 143 47t48 125q0 172 -217 172h-322 q-107 0 -188.5 23.5t-131 61t-81 91t-43 107.5t-11.5 116z" />
<glyph unicode="T" horiz-adv-x="1169" d="M59 1141v241h1051v-241h-403v-1141h-244v1141h-404z" />
<glyph unicode="U" horiz-adv-x="1499" d="M158 440v942h245v-923q0 -217 230 -217h246q227 0 227 217v923h237v-942q0 -218 -113.5 -329t-334.5 -111h-291q-221 0 -333.5 111t-112.5 329z" />
<glyph unicode="V" horiz-adv-x="1605" d="M39 1382h266l420 -1112q17 -47 68 -47q47 0 67 47l440 1112h269l-488 -1228q-37 -95 -107.5 -137t-180.5 -42q-108 0 -181.5 41.5t-109.5 137.5z" />
<glyph unicode="W" horiz-adv-x="2142" d="M66 1382h253l103 -1079q9 -92 84 -92q71 0 86 76l164 848q53 272 317 272q259 0 309 -272l154 -848q12 -76 88 -76q75 0 84 92l117 1079h252l-129 -1093q-35 -314 -324 -314q-267 0 -317 281l-152 844q-12 74 -84 74q-69 0 -84 -74l-162 -844q-28 -142 -108 -211.5 t-217 -69.5q-152 0 -226 82t-90 232z" />
<glyph unicode="X" horiz-adv-x="1599" d="M39 0l618 721l-561 661h295l424 -510l445 510h299l-592 -680l596 -702h-295l-459 549l-471 -549h-299z" />
<glyph unicode="Y" horiz-adv-x="1411" d="M27 1382h292l388 -591l391 591h286l-557 -786v-596h-243v596z" />
<glyph unicode="Z" horiz-adv-x="1521" d="M117 303q0 118 55 197.5t168 126.5l750 321q34 13 52.5 40.5t18.5 62.5q0 41 -26.5 65.5t-77.5 24.5h-891v241h907q164 0 250 -78.5t86 -224.5q0 -117 -55 -196t-166 -127l-754 -322q-69 -29 -69 -102q0 -41 26 -65.5t76 -24.5h911v-242h-927q-164 0 -249 78.5t-85 224.5 z" />
<glyph unicode="[" horiz-adv-x="806" d="M168 -541v2374h582v-150h-433v-2074h433v-150h-582z" />
<glyph unicode="\" horiz-adv-x="931" d="M23 1550h208l678 -1984h-211z" />
<glyph unicode="]" horiz-adv-x="806" d="M57 -391h432v2074h-432v150h582v-2374h-582v150z" />
<glyph unicode="^" horiz-adv-x="1095" d="M104 748l291 712q20 49 56 69.5t96 20.5t95.5 -20.5t55.5 -69.5l289 -708h-162l-256 641q-7 14 -22 14q-17 0 -23 -14l-258 -645h-162z" />
<glyph unicode="_" horiz-adv-x="1052" d="M0 -279h1061v-155h-1061v155z" />
<glyph unicode="`" horiz-adv-x="704" d="M172 1591h242l229 -440h-217z" />
<glyph unicode="a" horiz-adv-x="1376" d="M133 330q0 154 86 232.5t279 78.5h514v82q0 67 -40.5 108t-125.5 41h-647v209h649q193 0 285 -96.5t92 -259.5v-508q0 -121 -46 -169t-178 -48h-505q-363 0 -363 330zM346 342q0 -131 152 -131h454q32 0 46 13t14 42v203h-510q-83 0 -119.5 -32t-36.5 -95z" />
<glyph unicode="b" horiz-adv-x="1423" d="M156 463v1087h217v-469h479q221 0 344 -136t123 -404t-123 -404.5t-344 -136.5h-299q-397 0 -397 463zM373 473q0 -139 56 -200.5t187 -61.5h213q142 0 206.5 78t64.5 252t-64.5 252.5t-206.5 78.5h-456v-399z" />
<glyph unicode="c" horiz-adv-x="1232" d="M104 541q0 268 123.5 404t345.5 136h557v-209h-536q-141 0 -205.5 -78.5t-64.5 -252.5t64 -252t206 -78h536v-211h-557q-222 0 -345.5 136.5t-123.5 404.5z" />
<glyph unicode="d" horiz-adv-x="1423" d="M104 541q0 268 123.5 404t345.5 136h478v469h219v-1087q0 -231 -101.5 -347t-296.5 -116h-299q-222 0 -345.5 136.5t-123.5 404.5zM324 541q0 -174 65 -252t205 -78h215q130 0 186 61.5t56 200.5v399h-457q-140 0 -205 -78.5t-65 -252.5z" />
<glyph unicode="e" horiz-adv-x="1335" d="M133 356v369q0 163 92 259.5t285 96.5h350q365 0 365 -331q0 -155 -86.5 -233.5t-280.5 -78.5h-514v-78q0 -69 40.5 -109t125.5 -40h661v-211h-661q-193 0 -285 96.5t-92 259.5zM344 608h508q160 0 160 129q0 64 -38.5 99.5t-115.5 35.5h-348q-85 0 -125.5 -41 t-40.5 -108v-115z" />
<glyph unicode="f" horiz-adv-x="768" d="M47 872v209h148v97q0 208 74 290t245 82h195v-198h-150q-78 0 -111.5 -36.5t-33.5 -125.5v-109h299v-209h-299v-872h-219v872h-148z" />
<glyph unicode="g" horiz-adv-x="1417" d="M104 565q0 256 123.5 386t345.5 130h299q195 0 296.5 -116t101.5 -347v-622q0 -232 -92 -330t-318 -98h-643v209h619q120 0 167.5 50t47.5 169v49h-478q-222 0 -345.5 131.5t-123.5 388.5zM324 557q0 -165 65 -240t205 -75h457v379q0 133 -56 192t-186 59h-215 q-140 0 -205 -75t-65 -240z" />
<glyph unicode="h" horiz-adv-x="1447" d="M156 0v1550h217v-469h381q269 0 406.5 -123t137.5 -350v-608h-219v608q0 264 -325 264h-381v-872h-217z" />
<glyph unicode="i" horiz-adv-x="528" d="M156 0v1081h217v-1081h-217zM156 1237v252h219v-252h-219z" />
<glyph unicode="j" horiz-adv-x="552" d="M-111 -225h142q80 0 113.5 36t33.5 126v1144h219v-1142q0 -208 -73.5 -290.5t-243.5 -82.5h-191v209zM178 1237v252h219v-252h-219z" />
<glyph unicode="k" horiz-adv-x="1232" d="M156 0v1550h217v-917h100q133 0 178.5 19.5t91.5 103.5l181 325h235l-188 -340q-42 -75 -85.5 -120t-107.5 -72q72 -20 119.5 -68t101.5 -141l195 -340h-244l-180 319q-47 85 -100.5 108.5t-196.5 23.5h-100v-451h-217z" />
<glyph unicode="l" horiz-adv-x="528" d="M156 0v1550h217v-1550h-217z" />
<glyph unicode="m" horiz-adv-x="2113" d="M156 0v913q0 94 34 131t117 37h1112q271 0 409 -122.5t138 -350.5v-608h-219v608q0 264 -326 264h-254v-872h-219v872h-549q-26 0 -26 -30v-842h-217z" />
<glyph unicode="n" horiz-adv-x="1447" d="M156 0v913q0 94 34 131t117 37h447q271 0 407.5 -122.5t136.5 -350.5v-608h-219v608q0 264 -325 264h-355q-26 0 -26 -30v-842h-217z" />
<glyph unicode="o" horiz-adv-x="1374" d="M104 541q0 268 123.5 404t345.5 136h228q221 0 345 -136t124 -404t-124 -404.5t-345 -136.5h-228q-222 0 -345.5 136.5t-123.5 404.5zM324 541q0 -174 64 -252t206 -78h186q141 0 206 78t65 252t-65.5 252.5t-205.5 78.5h-186q-141 0 -205.5 -78.5t-64.5 -252.5z" />
<glyph unicode="p" horiz-adv-x="1419" d="M152 -434v1052q0 463 397 463h299q221 0 344 -136t123 -404t-123 -404.5t-344 -136.5h-479v-434h-217zM369 211h456q142 0 206.5 78t64.5 252t-64.5 252.5t-206.5 78.5h-213q-131 0 -187 -61.5t-56 -202.5v-397z" />
<glyph unicode="q" horiz-adv-x="1419" d="M104 541q0 268 123.5 404t345.5 136h299q195 0 296.5 -116t101.5 -347v-1052h-219v434h-478q-222 0 -345.5 136.5t-123.5 404.5zM324 541q0 -174 65 -252t205 -78h457v397q0 140 -56 202t-186 62h-215q-140 0 -205 -78.5t-65 -252.5z" />
<glyph unicode="r" horiz-adv-x="948" d="M154 0v766q0 165 67.5 240t224.5 75h445v-209h-381q-72 0 -105.5 -34t-33.5 -105v-733h-217z" />
<glyph unicode="s" horiz-adv-x="1200" d="M104 766q0 315 353 315h600v-209h-598q-74 0 -108 -30t-34 -92q0 -60 33.5 -88.5t120.5 -28.5h254q108 0 184 -23.5t116.5 -67t57.5 -95.5t17 -119q0 -153 -86 -240.5t-269 -87.5h-628v211h628q75 0 108.5 28t33.5 91q0 64 -36 92.5t-118 28.5h-256q-87 0 -153.5 17 t-107.5 45.5t-66.5 70t-35.5 85.5t-10 97z" />
<glyph unicode="t" horiz-adv-x="768" d="M47 872v209h148v256h219v-256h299v-209h-299v-512q0 -89 33.5 -125t111.5 -36h150v-199h-195q-171 0 -245 82.5t-74 290.5v499h-148z" />
<glyph unicode="u" horiz-adv-x="1437" d="M150 426v655h219v-647q0 -98 70.5 -160.5t195.5 -62.5h176q125 0 194.5 62t69.5 161v647h213v-655q0 -193 -121.5 -309.5t-347.5 -116.5h-201q-226 0 -347 116.5t-121 309.5z" />
<glyph unicode="v" horiz-adv-x="1386" d="M39 1081h229l361 -868q11 -33 53 -33q43 0 57 33l375 868h234l-418 -964q-33 -75 -93.5 -108.5t-154.5 -33.5q-188 0 -246 142z" />
<glyph unicode="w" horiz-adv-x="2000" d="M61 1081h236l96 -843q5 -36 23 -53t55 -17q36 0 54 14.5t26 44.5l154 656q25 109 97 164t199 55q126 0 195 -54.5t94 -164.5l146 -656q12 -59 82 -59q36 0 52 16.5t21 53.5l113 843h235l-120 -856q-33 -250 -303 -250q-125 0 -195.5 55t-95.5 169l-146 657q-11 53 -80 53 q-68 0 -79 -53l-154 -657q-27 -114 -99 -169t-200 -55q-143 0 -210 64.5t-83 185.5z" />
<glyph unicode="x" horiz-adv-x="1394" d="M39 0l526 563l-491 518h274l359 -391l372 391h271l-508 -538l514 -543h-277l-381 416l-389 -416h-270z" />
<glyph unicode="y" horiz-adv-x="1325" d="M39 1081h229l326 -805q10 -29 22 -37t43 -8h29l367 850h231l-651 -1515h-234l203 473q-89 0 -131.5 29.5t-71.5 103.5z" />
<glyph unicode="z" horiz-adv-x="1277" d="M104 248q0 93 46.5 161t138.5 101l622 223q58 21 58 76q0 63 -84 63h-742v209h754q138 0 208.5 -65.5t70.5 -181.5q0 -97 -49 -163t-136 -98l-620 -225q-58 -22 -58 -74q0 -65 82 -65h758v-209h-770q-136 0 -207.5 66.5t-71.5 181.5z" />
<glyph unicode="{" horiz-adv-x="806" d="M109 571v150h104q62 0 99.5 44t37.5 144v592q0 183 75 257.5t255 74.5h70v-150h-70q-98 0 -141 -43.5t-43 -142.5v-588q0 -187 -109 -264q109 -73 109 -262v-588q0 -99 43 -142.5t141 -43.5h70v-150h-70q-179 0 -254.5 75t-75.5 257v592q0 100 -37.5 144t-99.5 44h-104z " />
<glyph unicode="|" horiz-adv-x="591" d="M221 -340v1972h150v-1972h-150z" />
<glyph unicode="}" horiz-adv-x="806" d="M57 -391h70q98 0 141 43.5t43 142.5v588q0 187 109 264q-109 73 -109 262v588q0 99 -43 142.5t-141 43.5h-70v150h70q179 0 254.5 -75t75.5 -257v-592q0 -100 37.5 -144t99.5 -44h104v-150h-104q-62 0 -99.5 -44t-37.5 -144v-592q0 -183 -75 -257.5t-255 -74.5h-70v150z " />
<glyph unicode="~" horiz-adv-x="1267" d="M82 561v170q90 119 258 119q76 0 141 -22t174 -74q60 -27 93 -40t84.5 -25.5t99.5 -12.5q75 0 131 30.5t121 108.5v-170q-89 -119 -258 -119q-52 0 -108.5 15t-91 29.5t-116.5 52.5q-85 40 -145.5 59.5t-128.5 19.5q-77 0 -133 -30.5t-121 -110.5z" />
<glyph unicode="&#xa1;" horiz-adv-x="479" d="M117 -340l33 934h186l35 -934h-254zM127 803v278h233v-278h-233z" />
<glyph unicode="&#xa2;" horiz-adv-x="1269" d="M121 672q0 269 123.5 405.5t345.5 136.5h63v289h152v-289h342v-208h-537q-142 0 -206 -79t-64 -255q0 -173 64.5 -250.5t205.5 -77.5h537v-211h-342v-254h-152v254h-63q-222 0 -345.5 136.5t-123.5 402.5z" />
<glyph unicode="&#xa3;" horiz-adv-x="1331" d="M78 0v242h248v374h-248v183h248v106q0 106 29 191.5t89 150t160 100t234 35.5h342v-241h-326q-285 0 -285 -238v-104h602v-183h-602v-374h615v-242h-1106z" />
<glyph unicode="&#xa4;" horiz-adv-x="1345" d="M88 1178l107 106l186 -186q92 53 227 53h123q133 0 225 -53l187 186l106 -104l-186 -187q72 -110 72 -291q0 -178 -70 -290l182 -183l-104 -106l-187 186q-89 -51 -225 -51h-123q-138 0 -227 51l-186 -184l-105 104l182 183q-69 110 -69 290q0 185 69 291zM354 705 q0 -155 58.5 -225t189.5 -70h135q130 0 188 69.5t58 225.5q0 155 -58.5 224.5t-187.5 69.5h-135q-131 0 -189.5 -69.5t-58.5 -224.5z" />
<glyph unicode="&#xa5;" horiz-adv-x="1411" d="M27 1382h292l388 -591l391 591h286l-507 -716h419v-125h-469v-197h469v-125h-469v-219h-243v219h-469v125h469v197h-469v125h420z" />
<glyph unicode="&#xa6;" horiz-adv-x="591" d="M221 -340v848h150v-848h-150zM221 784v848h150v-848h-150z" />
<glyph unicode="&#xa7;" horiz-adv-x="1357" d="M86 1028q0 166 96 260t297 94h721v-208h-719q-178 0 -178 -154q0 -73 39 -117.5t117 -44.5h352q132 0 189 -61t57 -191v-299q97 -37 145.5 -125.5t48.5 -208.5q0 -166 -96 -260t-299 -94h-719v209h719q178 0 178 154q0 72 -39.5 116.5t-115.5 44.5h-353q-132 0 -188.5 61 t-56.5 191v297q-98 37 -146.5 126t-48.5 210zM467 442q0 -56 27 -83t86 -27h290v227q0 57 -27 84t-87 27h-289v-228z" />
<glyph unicode="&#xa8;" horiz-adv-x="937" d="M111 1237v252h219v-252h-219zM602 1237v252h219v-252h-219z" />
<glyph unicode="&#xa9;" d="M117 688q0 345 160 518.5t464 173.5h189q304 0 464 -173.5t160 -518.5q0 -344 -159.5 -517t-464.5 -173h-189q-305 0 -464.5 173t-159.5 517zM250 688q0 -278 126 -416.5t365 -138.5h189q239 0 364 138.5t125 416.5q0 279 -125 418t-364 139h-189q-240 0 -365.5 -139 t-125.5 -418zM473 698q0 184 85 275.5t247 91.5h282v-127h-282q-106 0 -154.5 -57t-48.5 -183q0 -125 48 -181t155 -56h282v-127h-282q-163 0 -247.5 91.5t-84.5 272.5z" />
<glyph unicode="&#xaa;" horiz-adv-x="970" d="M119 864q0 104 55.5 156.5t183.5 52.5h340v64q0 46 -26 74t-80 28h-428v143h428q130 0 191 -65t61 -178v-338q0 -88 -32 -123t-126 -35h-330q-237 0 -237 221zM264 872q0 -86 94 -86h295q24 0 34.5 11.5t10.5 36.5v122h-338q-96 0 -96 -84z" />
<glyph unicode="&#xab;" horiz-adv-x="860" d="M61 559q0 49 19 92l231 467h146l-252 -522q-10 -17 -10 -37q0 -17 10 -37l252 -522h-146l-231 467q-19 43 -19 92zM403 559q0 49 19 92l231 467h146l-252 -522q-10 -17 -10 -37q0 -17 10 -37l252 -522h-146l-231 467q-19 43 -19 92z" />
<glyph unicode="&#xac;" horiz-adv-x="1267" d="M82 651v150h1102v-801h-150v651h-952z" />
<glyph unicode="&#xad;" horiz-adv-x="849" d="M59 545v209h732v-209h-732z" />
<glyph unicode="&#xae;" d="M117 688q0 345 160 518.5t464 173.5h189q304 0 464 -173.5t160 -518.5q0 -344 -159.5 -517t-464.5 -173h-189q-305 0 -464.5 173t-159.5 517zM250 688q0 -278 126 -416.5t365 -138.5h189q239 0 364 138.5t125 416.5q0 279 -125 418t-364 139h-189q-240 0 -365.5 -139 t-125.5 -418zM522 944v127h398q118 0 176.5 -61.5t58.5 -157.5q0 -75 -38.5 -136t-117.5 -83l170 -293h-141l-168 283h-190q-19 0 -19 -19v-264h-127v289q0 62 27 89t88 27h285q52 0 77 29.5t25 73.5q0 41 -25.5 68.5t-76.5 27.5h-402z" />
<glyph unicode="&#xaf;" horiz-adv-x="1173" d="M111 1286v182h940v-182h-940z" />
<glyph unicode="&#xb0;" horiz-adv-x="796" d="M70 1081q0 161 70.5 243.5t199.5 82.5h133q129 0 200.5 -82.5t71.5 -243.5t-71.5 -243t-200.5 -82h-133q-129 0 -199.5 82t-70.5 243zM203 1081q0 -104 34.5 -149t114.5 -45h109q79 0 114 45t35 149t-35.5 150.5t-113.5 46.5h-109q-79 0 -114 -46.5t-35 -150.5z" />
<glyph unicode="&#xb1;" horiz-adv-x="1267" d="M82 37v149h1102v-149h-1102zM82 756v149h475v479h152v-479h475v-149h-475v-473h-152v473h-475z" />
<glyph unicode="&#xb2;" horiz-adv-x="806" d="M59 694v105q0 104 37.5 153.5t130.5 69.5l318 74q37 8 51 25t14 46q0 38 -19.5 56t-68.5 18h-438v141h436q111 0 170.5 -54.5t59.5 -156.5q0 -86 -43 -137t-136 -73l-315 -72q-31 -6 -43 -22.5t-12 -57.5v-27q0 -18 16 -18h512v-141h-596q-74 0 -74 71z" />
<glyph unicode="&#xb3;" horiz-adv-x="806" d="M84 623v141h395q53 0 74.5 21t21.5 69q0 44 -21.5 64t-76.5 20h-244v129h242q56 0 76 20.5t20 65.5q0 47 -20 67.5t-74 20.5h-393v141h393q242 0 242 -202q0 -130 -94 -176q98 -49 98 -179q0 -93 -58.5 -147.5t-185.5 -54.5h-395z" />
<glyph unicode="&#xb4;" horiz-adv-x="704" d="M51 1151l230 440h241l-256 -440h-215z" />
<glyph unicode="&#xb6;" horiz-adv-x="1501" d="M92 1174q0 176 102 276t316 100h596q125 0 179 -60t54 -185v-1743h-186v1677q0 102 -102 102h-541q-201 0 -201 -178q0 -81 44 -131.5t132 -50.5h121q118 0 170.5 -56t52.5 -169v-1190h-186v1145q0 82 -90 82h-109q-90 0 -159 30t-110.5 82.5t-62 120.5t-20.5 148z" />
<glyph unicode="&#xb7;" horiz-adv-x="495" d="M131 516v279h234v-279h-234z" />
<glyph unicode="&#xb8;" horiz-adv-x="550" d="M111 -377h24q40 0 58 21t18 65v242h217v-219q0 -273 -250 -273h-67v164z" />
<glyph unicode="&#xb9;" horiz-adv-x="806" d="M209 1241v141h168q116 0 155 -41.5t39 -156.5v-561h-139v551q0 40 -13.5 53.5t-53.5 13.5h-156z" />
<glyph unicode="&#xba;" horiz-adv-x="980" d="M102 1012q0 183 82.5 276.5t227.5 93.5h153q146 0 227.5 -93.5t81.5 -276.5t-81.5 -276t-227.5 -93h-153q-145 0 -227.5 93t-82.5 276zM252 1012q0 -118 42 -172t132 -54h125q91 0 131.5 53.5t40.5 172.5q0 120 -40.5 173.5t-131.5 53.5h-125q-90 0 -132 -54t-42 -173z " />
<glyph unicode="&#xbb;" horiz-adv-x="860" d="M61 0l252 522q9 27 9 37q0 15 -9 37l-252 522h144l233 -467q19 -43 19 -92q0 -41 -19 -92l-233 -467h-144zM403 0l252 522q9 27 9 37q0 15 -9 37l-252 522h144l233 -467q19 -43 19 -92q0 -41 -19 -92l-233 -467h-144z" />
<glyph unicode="&#xbc;" horiz-adv-x="1771" d="M158 1241v141h168q116 0 155 -41.5t39 -156.5v-561h-139v551q0 40 -14 53.5t-54 13.5h-155zM211 0l1085 1382h162l-1081 -1382h-166zM944 293q0 40 11.5 67t35.5 56l215 258q37 47 75 66.5t101 19.5h86q71 0 103.5 -34t32.5 -103v-623h-142v164h-344q-93 0 -133.5 32 t-40.5 97zM1100 317q0 -28 43 -28h319v301q0 28 -24 28h-60q-25 0 -37.5 -5t-25.5 -21l-203 -244q-12 -12 -12 -31z" />
<glyph unicode="&#xbd;" horiz-adv-x="1771" d="M102 1241v141h168q116 0 155.5 -41.5t39.5 -156.5v-561h-139v551q0 40 -14 53.5t-54 13.5h-156zM156 0l1085 1382h162l-1081 -1382h-166zM977 72v104q0 104 37.5 153.5t130.5 69.5l317 74q37 8 51.5 25.5t14.5 46.5q0 38 -19.5 55.5t-68.5 17.5h-439v142h437 q111 0 170 -54.5t59 -156.5q0 -86 -42.5 -138t-135.5 -73l-315 -72q-31 -6 -43.5 -22.5t-12.5 -57.5v-26q0 -19 17 -19h512v-141h-596q-74 0 -74 72z" />
<glyph unicode="&#xbe;" horiz-adv-x="1771" d="M86 623v141h395q53 0 75 21t22 69q0 44 -22 64t-77 20h-243v129h241q56 0 76 20.5t20 65.5q0 47 -20 67.5t-74 20.5h-393v141h393q242 0 242 -202q0 -130 -94 -176q98 -49 98 -179q0 -93 -58.5 -147.5t-185.5 -54.5h-395zM285 0l1085 1382h162l-1081 -1382h-166z M1018 293q0 40 11.5 67t35.5 56l215 258q37 47 75 66.5t101 19.5h86q71 0 103 -34t32 -103v-623h-141v164h-344q-93 0 -133.5 32t-40.5 97zM1174 317q0 -28 43 -28h319v301q0 28 -25 28h-59q-25 0 -37.5 -5t-25.5 -21l-203 -244q-12 -12 -12 -31z" />
<glyph unicode="&#xbf;" horiz-adv-x="1165" d="M59 16q0 103 34 183.5t111 131t189 50.5h119q98 0 98 96v117h187v-162q0 -122 -54 -182t-176 -60h-133q-80 0 -120 -44.5t-40 -118.5q0 -73 45.5 -115.5t137.5 -42.5h635v-209h-635q-205 0 -301.5 94.5t-96.5 261.5zM586 803v278h233v-278h-233z" />
<glyph unicode="&#xc0;" horiz-adv-x="1605" d="M39 0l485 1229q37 95 108 136.5t183 41.5q110 0 180.5 -42t106.5 -136l467 -1229h-269l-419 1112q-17 47 -68 47q-50 0 -70 -47l-438 -1112h-266zM547 1892h241l230 -440h-217z" />
<glyph unicode="&#xc1;" horiz-adv-x="1605" d="M39 0l485 1229q37 95 108 136.5t183 41.5q110 0 180.5 -42t106.5 -136l467 -1229h-269l-419 1112q-17 47 -68 47q-50 0 -70 -47l-438 -1112h-266zM594 1452l229 440h242l-256 -440h-215z" />
<glyph unicode="&#xc2;" horiz-adv-x="1605" d="M39 0l485 1229q37 95 108 136.5t183 41.5q110 0 180.5 -42t106.5 -136l467 -1229h-269l-419 1112q-17 47 -68 47q-50 0 -70 -47l-438 -1112h-266zM399 1452l185 336q53 104 225 104q166 0 221 -104l187 -336h-232l-137 256q-9 18 -41 18q-31 0 -41 -18l-135 -256h-232z " />
<glyph unicode="&#xc3;" horiz-adv-x="1605" d="M39 0l485 1229q37 95 108 136.5t183 41.5q110 0 180.5 -42t106.5 -136l467 -1229h-269l-419 1112q-17 47 -68 47q-50 0 -70 -47l-438 -1112h-266zM334 1587v182h940v-182h-940z" />
<glyph unicode="&#xc4;" horiz-adv-x="1605" d="M39 0l485 1229q37 95 108 136.5t183 41.5q110 0 180.5 -42t106.5 -136l467 -1229h-269l-419 1112q-17 47 -68 47q-50 0 -70 -47l-438 -1112h-266zM453 1538v252h219v-252h-219zM944 1538v252h219v-252h-219z" />
<glyph unicode="&#xc5;" horiz-adv-x="1605" d="M39 0l485 1229q37 95 108 136.5t183 41.5q110 0 180.5 -42t106.5 -136l467 -1229h-269l-419 1112q-17 47 -68 47q-50 0 -70 -47l-438 -1112h-266zM528 1657q0 117 53.5 176t151.5 59h141q97 0 151 -59t54 -176q0 -116 -54.5 -176t-150.5 -60h-141q-97 0 -151 60t-54 176z M641 1657q0 -68 24.5 -98.5t79.5 -30.5h115q54 0 79.5 31t25.5 98q0 69 -25.5 100t-79.5 31h-115q-55 0 -79.5 -31t-24.5 -100z" />
<glyph unicode="&#xc6;" horiz-adv-x="2068" d="M39 0l440 1151q44 128 122 192t216 64q84 0 148 -25h954v-241h-786q0 -6 1 -17.5t1 -17.5v-303h774v-219h-774v-113q0 -109 64.5 -169t217.5 -60h504v-242h-518q-263 0 -386.5 125t-123.5 344v625q0 37 -22 58.5t-60 21.5q-64 0 -88 -60l-424 -1114h-260z" />
<glyph unicode="&#xc7;" horiz-adv-x="1396" d="M117 690q0 345 160 518.5t464 173.5h535v-241h-535q-200 0 -291.5 -107t-91.5 -344q0 -236 91 -342t292 -106h535v-242h-535q-305 0 -464.5 173t-159.5 517zM608 -377h25q40 0 58 21t18 65v242h217v-219q0 -273 -250 -273h-68v164z" />
<glyph unicode="&#xc8;" horiz-adv-x="1419" d="M113 377q0 234 198 317q-194 80 -194 312q0 174 114 275t349 101h692v-241h-692q-106 0 -157.5 -46t-51.5 -128q0 -164 211 -164h680v-219h-687q-210 0 -210 -168q0 -83 52 -128.5t156 -45.5h701v-242h-701q-120 0 -210 28.5t-143.5 80t-80 118.5t-26.5 150zM541 1892 h241l230 -440h-217z" />
<glyph unicode="&#xc9;" horiz-adv-x="1419" d="M113 377q0 234 198 317q-194 80 -194 312q0 174 114 275t349 101h692v-241h-692q-106 0 -157.5 -46t-51.5 -128q0 -164 211 -164h680v-219h-687q-210 0 -210 -168q0 -83 52 -128.5t156 -45.5h701v-242h-701q-120 0 -210 28.5t-143.5 80t-80 118.5t-26.5 150zM586 1452 l229 440h242l-256 -440h-215z" />
<glyph unicode="&#xca;" horiz-adv-x="1419" d="M113 377q0 234 198 317q-194 80 -194 312q0 174 114 275t349 101h692v-241h-692q-106 0 -157.5 -46t-51.5 -128q0 -164 211 -164h680v-219h-687q-210 0 -210 -168q0 -83 52 -128.5t156 -45.5h701v-242h-701q-120 0 -210 28.5t-143.5 80t-80 118.5t-26.5 150zM383 1452 l184 336q53 104 226 104q166 0 221 -104l186 -336h-231l-138 256q-9 18 -40 18t-41 -18l-136 -256h-231z" />
<glyph unicode="&#xcb;" horiz-adv-x="1419" d="M113 377q0 234 198 317q-194 80 -194 312q0 174 114 275t349 101h692v-241h-692q-106 0 -157.5 -46t-51.5 -128q0 -164 211 -164h680v-219h-687q-210 0 -210 -168q0 -83 52 -128.5t156 -45.5h701v-242h-701q-120 0 -210 28.5t-143.5 80t-80 118.5t-26.5 150zM440 1538 v252h219v-252h-219zM932 1538v252h219v-252h-219z" />
<glyph unicode="&#xcc;" horiz-adv-x="600" d="M55 1892h242l229 -440h-217zM193 0v1382h241v-1382h-241z" />
<glyph unicode="&#xcd;" horiz-adv-x="604" d="M78 1452l229 440h242l-256 -440h-215zM168 0v1382h242v-1382h-242z" />
<glyph unicode="&#xce;" horiz-adv-x="733" d="M-41 1452l184 336q53 104 226 104q166 0 221 -104l186 -336h-231l-137 256q-9 18 -41 18q-31 0 -41 -18l-136 -256h-231zM246 0v1382h241v-1382h-241z" />
<glyph unicode="&#xcf;" horiz-adv-x="651" d="M-31 1538v252h219v-252h-219zM213 0v1382h242v-1382h-242zM461 1538v252h219v-252h-219z" />
<glyph unicode="&#xd0;" horiz-adv-x="1509" d="M23 584v219h145v467q0 112 115 112h487q306 0 464.5 -172.5t158.5 -519.5q0 -346 -158 -518t-465 -172h-487q-115 0 -115 113v471h-145zM410 266q0 -24 26 -24h334q201 0 291 106t90 344q0 236 -90 342.5t-291 106.5h-334q-26 0 -26 -25v-313h368v-219h-368v-318z" />
<glyph unicode="&#xd1;" horiz-adv-x="1800" d="M166 0v1106q0 140 80 220.5t237 80.5q137 0 213.5 -64t122.5 -192l404 -883q28 -57 88 -57q38 0 60 21t22 57v1093h243v-1103q0 -141 -80.5 -222.5t-236.5 -81.5q-137 0 -214.5 64.5t-123.5 191.5l-403 883q-26 60 -86 60q-41 0 -62.5 -21.5t-21.5 -58.5v-1094h-242z M430 1587v182h940v-182h-940z" />
<glyph unicode="&#xd2;" d="M117 688q0 345 160 519.5t464 174.5h189q304 0 464 -174.5t160 -519.5q0 -344 -159.5 -516t-464.5 -172h-189q-305 0 -464.5 172t-159.5 516zM358 688q0 -236 91 -341t292 -105h189q200 0 290.5 105.5t90.5 342.5q0 236 -90.5 343.5t-290.5 107.5h-189 q-200 0 -291.5 -108t-91.5 -345zM573 1892h242l229 -440h-217z" />
<glyph unicode="&#xd3;" d="M117 688q0 345 160 519.5t464 174.5h189q304 0 464 -174.5t160 -519.5q0 -344 -159.5 -516t-464.5 -172h-189q-305 0 -464.5 172t-159.5 516zM358 688q0 -236 91 -341t292 -105h189q200 0 290.5 105.5t90.5 342.5q0 236 -90.5 343.5t-290.5 107.5h-189 q-200 0 -291.5 -108t-91.5 -345zM625 1452l229 440h242l-256 -440h-215z" />
<glyph unicode="&#xd4;" d="M117 688q0 345 160 519.5t464 174.5h189q304 0 464 -174.5t160 -519.5q0 -344 -159.5 -516t-464.5 -172h-189q-305 0 -464.5 172t-159.5 516zM358 688q0 -236 91 -341t292 -105h189q200 0 290.5 105.5t90.5 342.5q0 236 -90.5 343.5t-290.5 107.5h-189 q-200 0 -291.5 -108t-91.5 -345zM426 1452l184 336q53 104 226 104q166 0 221 -104l186 -336h-231l-138 256q-9 18 -40 18t-41 -18l-136 -256h-231z" />
<glyph unicode="&#xd5;" d="M117 688q0 345 160 519.5t464 174.5h189q304 0 464 -174.5t160 -519.5q0 -344 -159.5 -516t-464.5 -172h-189q-305 0 -464.5 172t-159.5 516zM358 688q0 -236 91 -341t292 -105h189q200 0 290.5 105.5t90.5 342.5q0 236 -90.5 343.5t-290.5 107.5h-189 q-200 0 -291.5 -108t-91.5 -345zM365 1587v182h940v-182h-940z" />
<glyph unicode="&#xd6;" d="M117 688q0 345 160 519.5t464 174.5h189q304 0 464 -174.5t160 -519.5q0 -344 -159.5 -516t-464.5 -172h-189q-305 0 -464.5 172t-159.5 516zM358 688q0 -236 91 -341t292 -105h189q200 0 290.5 105.5t90.5 342.5q0 236 -90.5 343.5t-290.5 107.5h-189 q-200 0 -291.5 -108t-91.5 -345zM479 1538v252h219v-252h-219zM971 1538v252h219v-252h-219z" />
<glyph unicode="&#xd7;" horiz-adv-x="1267" d="M156 319l370 369l-370 373l106 104l371 -368l373 368l104 -104l-373 -373l371 -369l-104 -106l-371 371l-371 -369z" />
<glyph unicode="&#xd8;" d="M117 688q0 345 160 519.5t464 174.5h189q111 0 213 -26l100 168h174l-135 -226q272 -159 272 -610q0 -344 -159.5 -516t-464.5 -172h-189q-115 0 -213 25l-98 -166h-176l133 223q-270 158 -270 606zM358 688q0 -154 37.5 -251t116.5 -144l500 842q-37 6 -82 6h-189 q-200 0 -291.5 -108t-91.5 -345zM659 246q50 -4 82 -4h189q200 0 290.5 105.5t90.5 342.5q0 299 -154 397z" />
<glyph unicode="&#xd9;" horiz-adv-x="1499" d="M158 440v942h245v-923q0 -217 230 -217h246q227 0 227 217v923h237v-942q0 -218 -113.5 -329t-334.5 -111h-291q-221 0 -333.5 111t-112.5 329zM489 1892h242l230 -440h-218z" />
<glyph unicode="&#xda;" horiz-adv-x="1499" d="M158 440v942h245v-923q0 -217 230 -217h246q227 0 227 217v923h237v-942q0 -218 -113.5 -329t-334.5 -111h-291q-221 0 -333.5 111t-112.5 329zM539 1452l229 440h242l-256 -440h-215z" />
<glyph unicode="&#xdb;" horiz-adv-x="1499" d="M158 440v942h245v-923q0 -217 230 -217h246q227 0 227 217v923h237v-942q0 -218 -113.5 -329t-334.5 -111h-291q-221 0 -333.5 111t-112.5 329zM340 1452l184 336q53 104 226 104q166 0 221 -104l186 -336h-231l-138 256q-9 18 -40 18t-41 -18l-136 -256h-231z" />
<glyph unicode="&#xdc;" horiz-adv-x="1499" d="M158 440v942h245v-923q0 -217 230 -217h246q227 0 227 217v923h237v-942q0 -218 -113.5 -329t-334.5 -111h-291q-221 0 -333.5 111t-112.5 329zM395 1538v252h219v-252h-219zM887 1538v252h219v-252h-219z" />
<glyph unicode="&#xdd;" horiz-adv-x="1411" d="M27 1382h292l388 -591l391 591h286l-557 -786v-596h-243v596zM494 1452l229 440h242l-256 -440h-215z" />
<glyph unicode="&#xde;" horiz-adv-x="1439" d="M166 0v195q0 152 61.5 218t204.5 66h432q106 0 157.5 62.5t51.5 156.5q0 95 -51.5 157.5t-157.5 62.5h-432q-142 0 -204 63t-62 203v198h242v-151q0 -80 84 -80h364q97 0 176.5 -26.5t131.5 -70t87 -102.5t50.5 -122.5t15.5 -131.5t-15.5 -131t-50.5 -122t-87 -102 t-131.5 -69t-176.5 -26h-364q-44 0 -64 -23.5t-20 -74.5v-150h-242z" />
<glyph unicode="&#xdf;" horiz-adv-x="1748" d="M156 0v1143q0 227 81 317t267 90h215q168 0 241.5 -81t73.5 -257v-182q0 -100 90 -100h82q222 0 330.5 -115t108.5 -350q0 -237 -109 -351t-330 -114h-477v211h451q132 0 188.5 59.5t56.5 194.5q0 136 -56.5 196t-188.5 60h-119q-130 0 -188 66.5t-58 207.5v195 q0 85 -38.5 123.5t-121.5 38.5h-104q-95 0 -136.5 -44t-41.5 -153v-1155h-217z" />
<glyph unicode="&#xe0;" horiz-adv-x="1376" d="M133 330q0 154 86 232.5t279 78.5h514v82q0 67 -40.5 108t-125.5 41h-647v209h649q193 0 285 -96.5t92 -259.5v-508q0 -121 -46 -169t-178 -48h-505q-363 0 -363 330zM346 342q0 -131 152 -131h454q32 0 46 13t14 42v203h-510q-83 0 -119.5 -32t-36.5 -95zM438 1591h242 l229 -440h-217z" />
<glyph unicode="&#xe1;" horiz-adv-x="1376" d="M133 330q0 154 86 232.5t279 78.5h514v82q0 67 -40.5 108t-125.5 41h-647v209h649q193 0 285 -96.5t92 -259.5v-508q0 -121 -46 -169t-178 -48h-505q-363 0 -363 330zM346 342q0 -131 152 -131h454q32 0 46 13t14 42v203h-510q-83 0 -119.5 -32t-36.5 -95zM475 1151 l230 440h241l-256 -440h-215z" />
<glyph unicode="&#xe2;" horiz-adv-x="1376" d="M133 330q0 154 86 232.5t279 78.5h514v82q0 67 -40.5 108t-125.5 41h-647v209h649q193 0 285 -96.5t92 -259.5v-508q0 -121 -46 -169t-178 -48h-505q-363 0 -363 330zM287 1151l184 336q53 104 225 104q167 0 222 -104l186 -336h-232l-137 256q-9 18 -41 18 q-31 0 -41 -18l-135 -256h-231zM346 342q0 -131 152 -131h454q32 0 46 13t14 42v203h-510q-83 0 -119.5 -32t-36.5 -95z" />
<glyph unicode="&#xe3;" horiz-adv-x="1376" d="M133 330q0 154 86 232.5t279 78.5h514v82q0 67 -40.5 108t-125.5 41h-647v209h649q193 0 285 -96.5t92 -259.5v-508q0 -121 -46 -169t-178 -48h-505q-363 0 -363 330zM217 1286v182h940v-182h-940zM346 342q0 -131 152 -131h454q32 0 46 13t14 42v203h-510 q-83 0 -119.5 -32t-36.5 -95z" />
<glyph unicode="&#xe4;" horiz-adv-x="1376" d="M133 330q0 154 86 232.5t279 78.5h514v82q0 67 -40.5 108t-125.5 41h-647v209h649q193 0 285 -96.5t92 -259.5v-508q0 -121 -46 -169t-178 -48h-505q-363 0 -363 330zM332 1237v252h219v-252h-219zM346 342q0 -131 152 -131h454q32 0 46 13t14 42v203h-510 q-83 0 -119.5 -32t-36.5 -95zM823 1237v252h219v-252h-219z" />
<glyph unicode="&#xe5;" horiz-adv-x="1376" d="M133 330q0 154 86 232.5t279 78.5h514v82q0 67 -40.5 108t-125.5 41h-647v209h649q193 0 285 -96.5t92 -259.5v-508q0 -121 -46 -169t-178 -48h-505q-363 0 -363 330zM346 342q0 -131 152 -131h454q32 0 46 13t14 42v203h-510q-83 0 -119.5 -32t-36.5 -95zM412 1415 q0 118 53.5 177t150.5 59h142q96 0 150.5 -59.5t54.5 -176.5q0 -116 -54.5 -175.5t-150.5 -59.5h-142q-97 0 -150.5 59.5t-53.5 175.5zM524 1415q0 -68 25 -98.5t80 -30.5h114q54 0 79.5 31t25.5 98q0 69 -25.5 100t-79.5 31h-114q-55 0 -80 -31t-25 -100z" />
<glyph unicode="&#xe6;" horiz-adv-x="2217" d="M133 330q0 154 86 232.5t279 78.5h514v82q0 67 -40.5 108t-125.5 41h-647v209h649q176 0 272 -86q99 86 275 86h350q364 0 364 -331q0 -155 -86 -233.5t-280 -78.5h-514v-78q0 -69 40.5 -109t125.5 -40h661v-211h-661q-132 0 -217 45q-51 -45 -177 -45h-505 q-363 0 -363 330zM346 342q0 -131 152 -131h454q32 0 46 13t14 42v203h-510q-83 0 -119.5 -32t-36.5 -95zM1229 608h508q84 0 121.5 33t37.5 96q0 64 -38 99.5t-115 35.5h-348q-85 0 -125.5 -41t-40.5 -108v-115z" />
<glyph unicode="&#xe7;" horiz-adv-x="1232" d="M104 541q0 268 123.5 404t345.5 136h557v-209h-536q-141 0 -205.5 -78.5t-64.5 -252.5t64 -252t206 -78h536v-211h-557q-222 0 -345.5 136.5t-123.5 404.5zM514 -377h25q39 0 57 20.5t18 65.5v242h217v-219q0 -137 -61 -205t-188 -68h-68v164z" />
<glyph unicode="&#xe8;" horiz-adv-x="1335" d="M133 356v369q0 163 92 259.5t285 96.5h350q365 0 365 -331q0 -155 -86.5 -233.5t-280.5 -78.5h-514v-78q0 -69 40.5 -109t125.5 -40h661v-211h-661q-193 0 -285 96.5t-92 259.5zM344 608h508q160 0 160 129q0 64 -38.5 99.5t-115.5 35.5h-348q-85 0 -125.5 -41 t-40.5 -108v-115zM424 1591h242l229 -440h-217z" />
<glyph unicode="&#xe9;" horiz-adv-x="1335" d="M133 356v369q0 163 92 259.5t285 96.5h350q365 0 365 -331q0 -155 -86.5 -233.5t-280.5 -78.5h-514v-78q0 -69 40.5 -109t125.5 -40h661v-211h-661q-193 0 -285 96.5t-92 259.5zM344 608h508q160 0 160 129q0 64 -38.5 99.5t-115.5 35.5h-348q-85 0 -125.5 -41 t-40.5 -108v-115zM469 1151l229 440h242l-256 -440h-215z" />
<glyph unicode="&#xea;" horiz-adv-x="1335" d="M133 356v369q0 163 92 259.5t285 96.5h350q365 0 365 -331q0 -155 -86.5 -233.5t-280.5 -78.5h-514v-78q0 -69 40.5 -109t125.5 -40h661v-211h-661q-193 0 -285 96.5t-92 259.5zM260 1151l184 336q53 104 226 104q166 0 221 -104l186 -336h-231l-137 256q-9 18 -41 18 q-31 0 -41 -18l-135 -256h-232zM344 608h508q160 0 160 129q0 64 -38.5 99.5t-115.5 35.5h-348q-85 0 -125.5 -41t-40.5 -108v-115z" />
<glyph unicode="&#xeb;" horiz-adv-x="1335" d="M133 356v369q0 163 92 259.5t285 96.5h350q365 0 365 -331q0 -155 -86.5 -233.5t-280.5 -78.5h-514v-78q0 -69 40.5 -109t125.5 -40h661v-211h-661q-193 0 -285 96.5t-92 259.5zM319 1237v252h220v-252h-220zM344 608h508q160 0 160 129q0 64 -38.5 99.5t-115.5 35.5 h-348q-85 0 -125.5 -41t-40.5 -108v-115zM811 1237v252h219v-252h-219z" />
<glyph unicode="&#xec;" horiz-adv-x="569" d="M45 1591h242l229 -440h-217zM197 0v1081h217v-1081h-217z" />
<glyph unicode="&#xed;" horiz-adv-x="567" d="M55 1151l230 440h241l-256 -440h-215zM156 0v1081h217v-1081h-217z" />
<glyph unicode="&#xee;" horiz-adv-x="745" d="M-35 1151l185 336q53 104 225 104q166 0 221 -104l186 -336h-231l-137 256q-9 18 -41 18q-31 0 -41 -18l-135 -256h-232zM264 0v1081h217v-1081h-217z" />
<glyph unicode="&#xef;" horiz-adv-x="708" d="M-2 1237v252h219v-252h-219zM244 0v1081h217v-1081h-217zM489 1237v252h220v-252h-220z" />
<glyph unicode="&#xf0;" horiz-adv-x="1423" d="M104 500q0 243 124.5 373.5t344.5 130.5h478v67q0 270 -215 270h-189l-80 -167h-121l80 167h-149v209h252l59 123h121l-59 -123h110q220 0 315 -119.5t95 -359.5v-606q0 -232 -101 -347.5t-297 -115.5h-299q-220 0 -344.5 128t-124.5 370zM324 508q0 -155 64.5 -226 t205.5 -71h215q130 0 186 59t56 193v346h-457q-140 0 -205 -73.5t-65 -227.5z" />
<glyph unicode="&#xf1;" horiz-adv-x="1447" d="M156 0v913q0 94 34 131t117 37h447q271 0 407.5 -122.5t136.5 -350.5v-608h-219v608q0 264 -325 264h-355q-26 0 -26 -30v-842h-217zM254 1286v182h940v-182h-940z" />
<glyph unicode="&#xf2;" horiz-adv-x="1374" d="M104 541q0 268 123.5 404t345.5 136h228q221 0 345 -136t124 -404t-124 -404.5t-345 -136.5h-228q-222 0 -345.5 136.5t-123.5 404.5zM324 541q0 -174 64 -252t206 -78h186q141 0 206 78t65 252t-65.5 252.5t-205.5 78.5h-186q-141 0 -205.5 -78.5t-64.5 -252.5z M426 1591h242l229 -440h-217z" />
<glyph unicode="&#xf3;" horiz-adv-x="1374" d="M104 541q0 268 123.5 404t345.5 136h228q221 0 345 -136t124 -404t-124 -404.5t-345 -136.5h-228q-222 0 -345.5 136.5t-123.5 404.5zM324 541q0 -174 64 -252t206 -78h186q141 0 206 78t65 252t-65.5 252.5t-205.5 78.5h-186q-141 0 -205.5 -78.5t-64.5 -252.5z M475 1151l230 440h241l-256 -440h-215z" />
<glyph unicode="&#xf4;" horiz-adv-x="1374" d="M104 541q0 268 123.5 404t345.5 136h228q221 0 345 -136t124 -404t-124 -404.5t-345 -136.5h-228q-222 0 -345.5 136.5t-123.5 404.5zM279 1151l184 336q53 104 225 104q166 0 221 -104l187 -336h-232l-137 256q-9 18 -41 18q-31 0 -41 -18l-135 -256h-231zM324 541 q0 -174 64 -252t206 -78h186q141 0 206 78t65 252t-65.5 252.5t-205.5 78.5h-186q-141 0 -205.5 -78.5t-64.5 -252.5z" />
<glyph unicode="&#xf5;" horiz-adv-x="1374" d="M104 541q0 268 123.5 404t345.5 136h228q221 0 345 -136t124 -404t-124 -404.5t-345 -136.5h-228q-222 0 -345.5 136.5t-123.5 404.5zM217 1286v182h940v-182h-940zM324 541q0 -174 64 -252t206 -78h186q141 0 206 78t65 252t-65.5 252.5t-205.5 78.5h-186 q-141 0 -205.5 -78.5t-64.5 -252.5z" />
<glyph unicode="&#xf6;" horiz-adv-x="1374" d="M104 541q0 268 123.5 404t345.5 136h228q221 0 345 -136t124 -404t-124 -404.5t-345 -136.5h-228q-222 0 -345.5 136.5t-123.5 404.5zM324 541q0 -174 64 -252t206 -78h186q141 0 206 78t65 252t-65.5 252.5t-205.5 78.5h-186q-141 0 -205.5 -78.5t-64.5 -252.5z M332 1237v252h219v-252h-219zM823 1237v252h219v-252h-219z" />
<glyph unicode="&#xf7;" horiz-adv-x="1267" d="M82 614v150h1102v-150h-1102zM516 49v279h234v-279h-234zM516 1057v278h234v-278h-234z" />
<glyph unicode="&#xf8;" horiz-adv-x="1374" d="M104 541q0 268 123.5 404t345.5 136h228q57 0 129 -14l125 190h176l-162 -247q201 -133 201 -469q0 -268 -124 -404.5t-345 -136.5h-228q-81 0 -149 18l-105 -159h-176l146 223q-185 131 -185 459zM324 541q0 -201 86 -275l393 604q-3 0 -11 1t-12 1h-186 q-141 0 -205.5 -78.5t-64.5 -252.5zM551 213q12 -2 43 -2h186q141 0 206 78t65 252q0 210 -101 286z" />
<glyph unicode="&#xf9;" horiz-adv-x="1437" d="M150 426v655h219v-647q0 -98 70.5 -160.5t195.5 -62.5h176q125 0 194.5 62t69.5 161v647h213v-655q0 -193 -121.5 -309.5t-347.5 -116.5h-201q-226 0 -347 116.5t-121 309.5zM459 1591h241l230 -440h-217z" />
<glyph unicode="&#xfa;" horiz-adv-x="1437" d="M150 426v655h219v-647q0 -98 70.5 -160.5t195.5 -62.5h176q125 0 194.5 62t69.5 161v647h213v-655q0 -193 -121.5 -309.5t-347.5 -116.5h-201q-226 0 -347 116.5t-121 309.5zM508 1151l229 440h242l-256 -440h-215z" />
<glyph unicode="&#xfb;" horiz-adv-x="1437" d="M150 426v655h219v-647q0 -98 70.5 -160.5t195.5 -62.5h176q125 0 194.5 62t69.5 161v647h213v-655q0 -193 -121.5 -309.5t-347.5 -116.5h-201q-226 0 -347 116.5t-121 309.5zM311 1151l185 336q53 104 225 104q166 0 221 -104l186 -336h-231l-137 256q-9 18 -41 18 q-31 0 -41 -18l-135 -256h-232z" />
<glyph unicode="&#xfc;" horiz-adv-x="1437" d="M150 426v655h219v-647q0 -98 70.5 -160.5t195.5 -62.5h176q125 0 194.5 62t69.5 161v647h213v-655q0 -193 -121.5 -309.5t-347.5 -116.5h-201q-226 0 -347 116.5t-121 309.5zM362 1237v252h220v-252h-220zM854 1237v252h219v-252h-219z" />
<glyph unicode="&#xfd;" horiz-adv-x="1325" d="M39 1081h229l326 -805q10 -29 22 -37t43 -8h29l367 850h231l-651 -1515h-234l203 473q-89 0 -131.5 29.5t-71.5 103.5zM446 1151l230 440h242l-256 -440h-216z" />
<glyph unicode="&#xfe;" horiz-adv-x="1423" d="M158 37q0 92 47.5 133t144.5 41h479q142 0 206.5 77.5t64.5 250.5q0 176 -64.5 254.5t-206.5 78.5h-479q-97 0 -144.5 41.5t-47.5 133.5v503h217v-407q0 -33 15.5 -47.5t49.5 -14.5h412q221 0 344 -136.5t123 -405.5q0 -266 -123.5 -402.5t-343.5 -136.5h-412 q-34 0 -49.5 -13.5t-15.5 -45.5v-375h-217v471z" />
<glyph unicode="&#xff;" horiz-adv-x="1325" d="M39 1081h229l326 -805q10 -29 22 -37t43 -8h29l367 850h231l-651 -1515h-234l203 473q-89 0 -131.5 29.5t-71.5 103.5zM299 1237v252h219v-252h-219zM791 1237v252h219v-252h-219z" />
<glyph unicode="&#x152;" horiz-adv-x="2424" d="M117 688q0 345 160 519.5t464 174.5h1536v-241h-833q86 -133 104 -338h719v-219h-717q-18 -207 -102 -342h831v-242h-1538q-305 0 -464.5 172t-159.5 516zM358 690q0 -237 90.5 -342.5t292.5 -105.5h189q200 0 290.5 105.5t90.5 342.5q0 236 -90.5 343.5t-290.5 107.5 h-189q-200 0 -291.5 -107.5t-91.5 -343.5z" />
<glyph unicode="&#x153;" horiz-adv-x="2258" d="M104 541q0 268 123.5 404t345.5 136h228q206 0 327 -118q94 118 306 118h350q364 0 364 -331q0 -155 -86 -233.5t-280 -78.5h-514v-78q0 -69 40.5 -109t125.5 -40h661v-211h-661q-211 0 -306 119q-122 -119 -327 -119h-228q-222 0 -345.5 136.5t-123.5 404.5zM324 541 q0 -174 64 -252t206 -78h186q141 0 206 78t65 252t-65.5 252.5t-205.5 78.5h-186q-141 0 -205.5 -78.5t-64.5 -252.5zM1268 608h508q84 0 121.5 33t37.5 96q0 64 -38 99.5t-115 35.5h-348q-85 0 -125.5 -41t-40.5 -108v-115z" />
<glyph unicode="&#x178;" horiz-adv-x="1411" d="M27 1382h292l388 -591l391 591h286l-557 -786v-596h-243v596zM348 1538v252h219v-252h-219zM840 1538v252h219v-252h-219z" />
<glyph unicode="&#x2c6;" horiz-adv-x="1044" d="M111 1151l184 336q53 104 225 104q166 0 221 -104l187 -336h-232l-137 256q-9 18 -41 18q-31 0 -41 -18l-135 -256h-231z" />
<glyph unicode="&#x2dc;" horiz-adv-x="1173" d="M111 1286v182h940v-182h-940z" />
<glyph unicode="&#x2000;" horiz-adv-x="946" />
<glyph unicode="&#x2001;" horiz-adv-x="1892" />
<glyph unicode="&#x2002;" horiz-adv-x="946" />
<glyph unicode="&#x2003;" horiz-adv-x="1892" />
<glyph unicode="&#x2004;" horiz-adv-x="630" />
<glyph unicode="&#x2005;" horiz-adv-x="473" />
<glyph unicode="&#x2006;" horiz-adv-x="315" />
<glyph unicode="&#x2007;" horiz-adv-x="315" />
<glyph unicode="&#x2008;" horiz-adv-x="236" />
<glyph unicode="&#x2009;" horiz-adv-x="378" />
<glyph unicode="&#x200a;" horiz-adv-x="105" />
<glyph unicode="&#x2010;" horiz-adv-x="849" d="M59 545v209h732v-209h-732z" />
<glyph unicode="&#x2011;" horiz-adv-x="849" d="M59 545v209h732v-209h-732z" />
<glyph unicode="&#x2012;" horiz-adv-x="849" d="M59 545v209h732v-209h-732z" />
<glyph unicode="&#x2013;" horiz-adv-x="1187" d="M59 545v209h1069v-209h-1069z" />
<glyph unicode="&#x2014;" horiz-adv-x="1615" d="M59 545v209h1500v-209h-1500z" />
<glyph unicode="&#x2018;" horiz-adv-x="509" d="M115 928v332q0 147 65 218.5t201 71.5h74v-178h-27q-41 0 -59.5 -21t-18.5 -67v-356h-235z" />
<glyph unicode="&#x2019;" horiz-adv-x="509" d="M57 928v178h25q41 0 60.5 21t19.5 67v356h233v-331q0 -147 -65.5 -219t-200.5 -72h-72z" />
<glyph unicode="&#x201a;" horiz-adv-x="509" d="M57 -166h25q41 0 60.5 21t19.5 67v357h233v-332q0 -147 -65.5 -219t-200.5 -72h-72v178z" />
<glyph unicode="&#x201c;" horiz-adv-x="980" d="M115 928v332q0 147 65 218.5t201 71.5h74v-178h-27q-41 0 -59.5 -21t-18.5 -67v-356h-235zM586 928v332q0 147 65 218.5t201 71.5h74v-178h-27q-41 0 -59.5 -21t-18.5 -67v-356h-235z" />
<glyph unicode="&#x201d;" horiz-adv-x="980" d="M57 928v178h25q41 0 60.5 21t19.5 67v356h233v-331q0 -147 -65.5 -219t-200.5 -72h-72zM528 928v178h25q41 0 60.5 21t19.5 67v356h233v-331q0 -147 -65.5 -219t-200.5 -72h-72z" />
<glyph unicode="&#x201e;" horiz-adv-x="980" d="M57 -166h25q41 0 60.5 21t19.5 67v357h233v-332q0 -147 -65.5 -219t-200.5 -72h-72v178zM528 -166h25q41 0 60.5 21t19.5 67v357h233v-332q0 -147 -65.5 -219t-200.5 -72h-72v178z" />
<glyph unicode="&#x2022;" horiz-adv-x="894" d="M131 713q0 133 59 200.5t164 67.5h176q106 0 166 -67.5t60 -200.5t-60 -201t-166 -68h-176q-105 0 -164 68t-59 201z" />
<glyph unicode="&#x2026;" horiz-adv-x="1566" d="M158 0v279h233v-279h-233zM666 0v279h233v-279h-233zM1176 0v279h233v-279h-233z" />
<glyph unicode="&#x202f;" horiz-adv-x="378" />
<glyph unicode="&#x2039;" horiz-adv-x="518" d="M61 559q0 49 19 92l231 467h146l-252 -522q-10 -17 -10 -37q0 -17 10 -37l252 -522h-146l-231 467q-19 43 -19 92z" />
<glyph unicode="&#x203a;" horiz-adv-x="518" d="M61 0l252 522q9 27 9 37q0 15 -9 37l-252 522h144l233 -467q19 -43 19 -92q0 -41 -19 -92l-233 -467h-144z" />
<glyph unicode="&#x205f;" horiz-adv-x="473" />
<glyph unicode="&#x20ac;" horiz-adv-x="1386" d="M61 494l41 112h105q-2 27 -2 84q0 61 2 90h-146l41 113h119q44 244 198 366.5t410 122.5h484l-99 -221h-393q-156 0 -245 -64.5t-121 -203.5h641l-41 -113h-617q-2 -29 -2 -88t2 -86h543l-41 -112h-485q31 -140 120 -205.5t246 -65.5h393v-223h-385q-259 0 -413.5 123.5 t-196.5 370.5h-158z" />
<glyph unicode="&#x2122;" horiz-adv-x="2119" d="M92 1405v145h631v-145h-242v-684h-145v684h-244zM834 721v659q0 86 50 135.5t148 49.5q170 0 209 -164l117 -506q9 -47 55 -47q43 0 55 47l117 506q36 164 203 164q99 0 150 -49.5t51 -135.5v-659h-146v651q0 53 -57 53q-50 0 -60 -45l-118 -508q-19 -84 -66 -124.5 t-131 -40.5q-162 0 -201 165l-116 508q-10 45 -58 45q-59 0 -59 -53v-651h-143z" />
<glyph unicode="&#x25fc;" horiz-adv-x="1085" d="M0 0v1085h1085v-1085h-1085z" />
</font>
</defs>
</svg>
